<?xml version="1.0" encoding="UTF-8"?>
<svg width="335px" height="166px" viewBox="0 0 335 166" version="1.1" xmlns="http://www.w3.org/2000/svg" xmlns:xlink="http://www.w3.org/1999/xlink">
    <title>Group</title>
    <g id="Page-1" stroke="none" stroke-width="1" fill="none" fill-rule="evenodd">
        <g id="dark/V4_home_mobile" transform="translate(-20.000000, -179.000000)">
            <g id="Group" transform="translate(20.000000, 179.000000)">
                <rect id="Rectangle" fill-opacity="0" fill="#2088FF" x="0" y="0" width="335" height="153" rx="15"></rect>
                <g transform="translate(112.000000, 31.000000)" fill="#FFFFFF" id="icons/github_dark">
                    <path d="M53.5,0 C23.941989,0 0,24.0855088 0,53.8207048 C0,77.6088616 15.3373235,97.7627167 36.5862492,104.899164 C39.2464702,105.39475 40.2317373,103.742795 40.2317373,102.289074 C40.2317373,101.000549 40.198895,97.6305603 40.1660528,93.1372418 C25.2885206,96.3750742 22.1356661,85.9347165 22.1356661,85.9347165 C19.7053407,79.7233645 16.1912216,78.03837 16.1912216,78.03837 C11.3305709,74.7014202 16.5524862,74.7674985 16.5524862,74.7674985 C21.9057704,75.1639677 24.7630448,80.3180684 24.7630448,80.3180684 C29.5251688,88.5448059 37.2759362,86.1659903 40.330264,84.7783478 C40.8228975,81.3092416 42.2022713,78.9304259 43.7130141,77.5758225 C31.8569675,76.2542583 19.3769184,71.6287833 19.3769184,51.0123807 C19.3769184,45.1314197 21.4459791,40.3407493 24.8944138,36.5742911 C24.3360958,35.1866486 22.4969306,29.735196 25.3870473,22.3344361 C25.3870473,22.3344361 29.8864334,20.8807154 40.1003683,27.8519669 C44.3698588,26.6625591 48.9349294,26.0678552 53.5,26.0348161 C58.0322284,26.0678552 62.6301412,26.6625591 66.8996317,27.8519669 C77.1135666,20.8807154 81.6129527,22.3344361 81.6129527,22.3344361 C84.5359116,29.735196 82.6967465,35.2196877 82.1384285,36.5742911 C85.5540209,40.3407493 87.6230816,45.1314197 87.6230816,51.0123807 C87.6230816,71.6948615 75.1101903,76.2212192 63.1884592,77.5758225 C65.0933088,79.2277779 66.8339472,82.5316885 66.8339472,87.5536327 C66.8339472,94.756158 66.7682627,100.538002 66.7682627,102.322113 C66.7682627,103.775834 67.7206875,105.427789 70.446593,104.899164 C91.6955187,97.7627167 107,77.6088616 107,53.8537439 C107,24.0855088 83.058011,0 53.5,0 Z" id="Path"></path>
                </g>
                <path d="M269.797113,107.868354 L284.130038,107.917066 C289.626271,107.935745 294.077235,112.386645 294.095994,117.882878 L294.096581,118.054897 L294.096581,118.054897 L279.935675,118.00677 C274.344249,117.987767 269.816197,113.45978 269.797113,107.868354 L269.797113,107.868354 L269.797113,107.868354 Z" id="Rectangle" fill="#EF7C85" transform="translate(281.946847, 112.961626) rotate(-104.000000) translate(-281.946847, -112.961626) "></path>
                <path d="M274.650404,109.809857 C278.068039,109.809857 280.83858,112.580398 280.83858,115.998034 L280.83858,135.241495 L280.83858,135.241495 C274.003309,135.241495 268.462227,129.700413 268.462227,122.865142 L268.462227,115.998034 C268.462227,112.580398 271.232768,109.809857 274.650404,109.809857 Z" id="Rectangle" fill="#FFA586" transform="translate(274.650404, 122.525676) rotate(-75.000000) translate(-274.650404, -122.525676) "></path>
                <path d="M287.980263,88.0226511 C291.397819,88.0277735 294.165022,90.8007447 294.163028,94.2183037 L294.151897,113.294773 L294.151897,113.294773 C287.424365,113.380896 281.900807,107.996971 281.814683,101.269439 C281.814096,101.223593 281.813768,101.177745 281.813699,101.131895 L281.803231,94.1997526 C281.798087,90.7933775 284.55533,88.027795 287.961705,88.0226512 C287.967891,88.0226418 287.974077,88.0226418 287.980263,88.0226511 Z" id="Rectangle" fill="#FFA586" transform="translate(287.980263, 100.732931) rotate(94.000000) translate(-287.980263, -100.732931) "></path>
                <path d="M36.9956734,25.0561528 L48.8230609,25.0963491 C53.4930984,25.1122206 57.2749915,28.8940589 57.2909307,33.5640961 L57.2909307,33.5640961 L57.2909307,33.5640961 L45.4635432,33.5238998 C40.7935057,33.5080283 37.0116127,29.72619 36.9956734,25.0561528 L36.9956734,25.0561528 L36.9956734,25.0561528 Z" id="Rectangle" fill="#8389EF"></path>
                <path d="M41.0517865,11.1268159 C43.85913,11.1268159 46.1349316,13.4026175 46.1349316,16.209961 L46.1349316,32.1736885 L46.1349316,32.1736885 C40.5202446,32.1736885 35.9686415,27.6220854 35.9686415,22.0073984 L35.9686415,16.209961 C35.9686415,13.4026175 38.244443,11.1268159 41.0517865,11.1268159 Z" id="Rectangle" fill="#8BB6EE" transform="translate(41.051787, 21.650252) rotate(29.000000) translate(-41.051787, -21.650252) "></path>
                <path d="M55.8344015,26.0547167 C58.6887921,26.058995 60.9999988,28.3750196 60.9983333,31.2294129 L60.9890364,47.162348 L60.9890364,47.162348 C55.3701074,47.2342794 50.7567536,42.7375494 50.6848223,37.1186205 C50.6843321,37.0803295 50.6840581,37.042036 50.6840002,37.0037418 L50.6752572,31.2139188 C50.670961,28.3688664 52.9738489,26.059013 55.8189012,26.0547168 C55.824068,26.054709 55.8292348,26.054709 55.8344015,26.0547167 Z" id="Rectangle" fill="#8BB6EE" transform="translate(55.834402, 36.670521) rotate(198.000000) translate(-55.834402, -36.670521) "></path>
                <path d="M57.6438768,99.5664307 L67.623235,99.6003464 C71.5635791,99.613738 74.7545514,102.804664 74.7680001,106.745008 L74.7680001,106.745008 L74.7680001,106.745008 L64.7886419,106.711092 C60.8482978,106.697701 57.6573255,103.506775 57.6438768,99.5664307 L57.6438768,99.5664307 L57.6438768,99.5664307 Z" id="Rectangle" fill="#9561E0" transform="translate(66.205938, 103.155719) rotate(-69.000000) translate(-66.205938, -103.155719) "></path>
                <path d="M58.296453,96.8471528 C60.7376213,96.8471528 62.7165791,98.8261106 62.7165791,101.267279 L62.7165791,114.82469 L62.7165791,114.82469 C57.8342426,114.82469 53.8763269,110.866774 53.8763269,105.984437 L53.8763269,101.267279 C53.8763269,98.8261106 55.8552848,96.8471528 58.296453,96.8471528 Z" id="Rectangle" fill="#A184E2" transform="translate(58.296453, 105.835921) rotate(-40.000000) translate(-58.296453, -105.835921) "></path>
                <path d="M74.6317388,89.5781664 C77.0401309,89.5817763 78.9902116,91.535922 78.9888063,93.9443163 L78.980962,107.38773 L78.980962,107.38773 C74.2399907,107.448422 70.3474735,103.654307 70.2867814,98.9133353 C70.2863678,98.8810272 70.2861366,98.8487171 70.2860878,98.8164064 L70.2787108,93.9312432 C70.2750859,91.5307303 72.2181476,89.5817914 74.6186605,89.5781665 C74.6230199,89.5781599 74.6273794,89.5781599 74.6317388,89.5781664 Z" id="Rectangle" fill="#A081E0" transform="translate(74.631739, 98.535251) rotate(129.000000) translate(-74.631739, -98.535251) "></path>
                <path d="M126.308256,8.92429194 L127.322602,11.9733329 L127.322602,11.9733329 L123.44593,11.9733329 L124.405949,8.93836806 C124.572513,8.41179911 125.134408,8.11995749 125.660977,8.28652156 C125.966446,8.38314719 126.207121,8.62028688 126.308256,8.92429194 Z" id="Rectangle" fill="#D8D8D8"></path>
                <path d="M126.426182,14.7268011 L127.524453,17.9653012 L127.524453,17.9653012 L123.495318,17.9606093 L124.526892,14.7426947 C124.695488,14.2167728 125.258506,13.9271029 125.784428,14.0956989 C126.08628,14.1924642 126.324378,14.4266111 126.426182,14.7268011 Z" id="Rectangle" fill="#D8D8D8" transform="translate(125.509885, 14.910407) rotate(-179.000000) translate(-125.509885, -14.910407) "></path>
                <path d="M123.706578,11.9362005 L124.86751,15.0028947 L124.86751,15.0028947 L120.732126,15.0028947 L121.830446,11.9515661 C122.017492,11.4319197 122.590379,11.1622936 123.110025,11.3493393 C123.385102,11.4483526 123.603073,11.6627827 123.706578,11.9362005 Z" id="Rectangle" fill="#D8D8D8" transform="translate(122.799818, 12.203076) rotate(-90.000000) translate(-122.799818, -12.203076) "></path>
                <path d="M128.873764,11.7540182 L130.137037,15.0052823 L130.137037,15.0052823 L125.84041,14.9865718 L127.001239,11.7761527 C127.189036,11.2567772 127.762312,10.9879795 128.281688,11.1757763 C128.553287,11.2739817 128.769166,11.4848159 128.873764,11.7540182 Z" id="Rectangle" fill="#D8D8D8" transform="translate(127.988723, 12.136852) rotate(86.000000) translate(-127.988723, -12.136852) "></path>
                <rect id="Rectangle" fill="#D8D8D8" x="124.307413" y="10.5948714" width="2.58444762" height="2.75692286"></rect>
                <path d="M231.308256,143.924292 L232.322602,146.973333 L232.322602,146.973333 L228.44593,146.973333 L229.405949,143.938368 C229.572513,143.411799 230.134408,143.119957 230.660977,143.286522 C230.966446,143.383147 231.207121,143.620287 231.308256,143.924292 Z" id="Rectangle" fill="#D8D8D8"></path>
                <path d="M231.426182,149.726801 L232.524453,152.965301 L232.524453,152.965301 L228.495318,152.960609 L229.526892,149.742695 C229.695488,149.216773 230.258506,148.927103 230.784428,149.095699 C231.08628,149.192464 231.324378,149.426611 231.426182,149.726801 Z" id="Rectangle" fill="#D8D8D8" transform="translate(230.509885, 149.910407) rotate(-179.000000) translate(-230.509885, -149.910407) "></path>
                <path d="M228.706578,146.936201 L229.86751,150.002895 L229.86751,150.002895 L225.732126,150.002895 L226.830446,146.951566 C227.017492,146.43192 227.590379,146.162294 228.110025,146.349339 C228.385102,146.448353 228.603073,146.662783 228.706578,146.936201 Z" id="Rectangle" fill="#D8D8D8" transform="translate(227.799818, 147.203076) rotate(-90.000000) translate(-227.799818, -147.203076) "></path>
                <path d="M233.873764,146.754018 L235.137037,150.005282 L235.137037,150.005282 L230.84041,149.986572 L232.001239,146.776153 C232.189036,146.256777 232.762312,145.98798 233.281688,146.175776 C233.553287,146.273982 233.769166,146.484816 233.873764,146.754018 Z" id="Rectangle" fill="#D8D8D8" transform="translate(232.988723, 147.136852) rotate(86.000000) translate(-232.988723, -147.136852) "></path>
                <rect id="Rectangle" fill="#D8D8D8" x="229.307413" y="145.594871" width="2.58444762" height="2.75692286"></rect>
                <path d="M102.020517,51.3181118 L102.523492,51.314894 C105.145305,51.2981213 107.284301,53.4099236 107.301074,56.0317366 C107.301204,56.0520318 107.301203,56.0723276 107.301073,56.0926228 C107.283938,58.7581965 105.127245,60.9148225 102.461671,60.9318752 L101.958696,60.935093 C99.3368829,60.9518657 97.1978866,58.8400634 97.1811138,56.2182504 C97.180984,56.1979552 97.1809843,56.1776594 97.1811148,56.1573641 C97.1982499,53.4917904 99.3549425,51.3351645 102.020517,51.3181118 Z" id="Rectangle" fill="#79EAC4" transform="translate(102.241094, 56.124993) rotate(20.000000) translate(-102.241094, -56.124993) "></path>
                <path d="M276.233475,60.9489461 L276.641083,60.9452876 C279.258146,60.9217979 281.398736,63.0243038 281.422226,65.6413659 C281.42248,65.669692 281.42248,65.6980199 281.422226,65.726346 C281.398234,68.4046469 279.232951,70.569968 276.554651,70.5940074 L276.147043,70.5976659 C273.529981,70.6211556 271.38939,68.5186497 271.365901,65.9015876 C271.365646,65.8732615 271.365646,65.8449336 271.3659,65.8166075 C271.389892,63.1383066 273.555175,60.9729855 276.233475,60.9489461 Z" id="Rectangle" fill="#79EAC4" transform="translate(276.394063, 65.771477) rotate(58.000000) translate(-276.394063, -65.771477) "></path>
                <rect id="Rectangle" fill="#FFE366" x="255" y="12" width="10" height="10" rx="5"></rect>
                <path d="M30.8719149,77.6885786 L31.367438,77.6849128 C33.9834066,77.6655599 36.1197568,79.7705329 36.1391097,82.3865016 C36.1392829,82.4099129 36.1392825,82.4333252 36.1391086,82.4567365 C36.1192962,85.1232369 33.9625004,87.2799635 31.2959994,87.2996902 L30.8004763,87.3033561 C28.1845076,87.322709 26.0481574,85.217736 26.0288046,82.6017673 C26.0286314,82.5783559 26.0286318,82.5549436 26.0288057,82.5315323 C26.048618,79.8650319 28.2054139,77.7083053 30.8719149,77.6885786 Z" id="Rectangle" fill="#EE8CBD" transform="translate(31.083957, 82.494134) rotate(24.000000) translate(-31.083957, -82.494134) "></path>
                <path d="M216.93001,21.2310836 L217.312914,21.2282509 C219.334344,21.2132964 220.98516,22.8398665 221.000115,24.8612968 C221.000248,24.8793874 221.000248,24.8974787 221.000114,24.9155693 C220.984804,26.9760468 219.318189,28.6426083 217.257711,28.6578517 L216.874807,28.6606844 C214.853377,28.6756389 213.202561,27.0490688 213.187606,25.0276385 C213.187472,25.0095479 213.187473,24.9914566 213.187607,24.973366 C213.202917,22.9128885 214.869532,21.246327 216.93001,21.2310836 Z" id="Rectangle" fill="#EE8CBD" transform="translate(217.093860, 24.944468) rotate(24.000000) translate(-217.093860, -24.944468) "></path>
                <rect id="Rectangle" fill="#8AB5ED" x="95" y="136" width="7" height="7" rx="3.5"></rect>
                <text id="@mistricky" font-family="PingFangSC-Light, PingFang SC" font-size="14" font-weight="300" fill="#FFFFFF" fill-opacity="0.809440559">
                    <tspan x="6" y="161">@mistricky</tspan>
                </text>
            </g>
        </g>
    </g>
</svg>