<?xml version="1.0" encoding="UTF-8"?>
<svg width="30px" height="29px" viewBox="0 0 30 29" version="1.1" xmlns="http://www.w3.org/2000/svg" xmlns:xlink="http://www.w3.org/1999/xlink">
    <title>icons/github_dark</title>
    <g id="Symbols" stroke="none" stroke-width="1" fill="none" fill-rule="evenodd">
        <g id="header" transform="translate(-1200.000000, -20.000000)" fill="#D8D8D8">
            <g id="icons/github_dark" transform="translate(1200.000000, 20.000000)">
                <path d="M14.8222222,0 C6.63314917,0 0,6.65218814 0,14.8647661 C0,21.4348285 4.24921902,27.0011313 10.1362526,28.97215 C10.8732692,29.1090263 11.1462383,28.652772 11.1462383,28.2512681 C11.1462383,27.8953898 11.1371393,26.9646309 11.1280404,25.7236192 C7.00620694,26.6178776 6.13270582,23.7343503 6.13270582,23.7343503 C5.45938203,22.018834 4.48579224,21.5534546 4.48579224,21.5534546 C3.13914467,20.6318208 4.58588091,20.650071 4.58588091,20.650071 C6.06901303,20.759572 6.86062342,22.1830856 6.86062342,22.1830856 C8.17997408,24.4552321 10.327331,23.7982259 11.1735352,23.4149722 C11.3100198,22.4568382 11.6921765,21.7998319 12.1107291,21.4257034 C8.82600095,21.0606999 5.36839233,19.7831878 5.36839233,14.0891337 C5.36839233,12.4648683 5.94162745,11.1417308 6.8970193,10.1014709 C6.74233681,9.71821724 6.23279449,8.21257795 7.03350385,6.16855855 C7.03350385,6.16855855 8.28006275,5.76705474 11.1098424,7.69244801 C12.2927085,7.3639449 13.5574654,7.19969334 14.8222222,7.19056825 C16.0778801,7.19969334 17.3517359,7.3639449 18.534602,7.69244801 C21.3643817,5.76705474 22.6109406,6.16855855 22.6109406,6.16855855 C23.4207489,8.21257795 22.9112066,9.72734233 22.7565241,10.1014709 C23.702817,11.1417308 24.2760521,12.4648683 24.2760521,14.0891337 C24.2760521,19.8014379 20.8093445,21.0515748 17.5064184,21.4257034 C18.0341587,21.8819577 18.5164041,22.7944664 18.5164041,24.1814795 C18.5164041,26.1707484 18.4982061,27.7676386 18.4982061,28.2603932 C18.4982061,28.661897 18.7620763,29.1181514 19.5172908,28.97215 C25.4043244,27.0011313 29.6444444,21.4348285 29.6444444,14.8738912 C29.6444444,6.65218814 23.0112953,0 14.8222222,0 Z" id="Path"></path>
            </g>
        </g>
    </g>
</svg>