<?xml version="1.0" encoding="UTF-8"?>
<svg width="1020px" height="348px" viewBox="0 0 1020 348" version="1.1" xmlns="http://www.w3.org/2000/svg" xmlns:xlink="http://www.w3.org/1999/xlink">
    <title>Group 2</title>
    <g id="Page-1" stroke="none" stroke-width="1" fill="none" fill-rule="evenodd">
        <g id="light/V5_projects" transform="translate(-210.000000, -126.000000)">
            <g id="Group-2" transform="translate(210.000000, 126.000000)">
                <rect id="Rectangle" fill-opacity="0" fill="#2088FF" x="0" y="0" width="1020" height="348" rx="15"></rect>
                <g id="icons/github_dark" transform="translate(422.000000, 93.000000)" fill="#FFFFFF">
                    <path d="M82,0 C36.6961326,0 0,36.9311135 0,82.5250807 C0,119.000255 23.5076734,149.902832 56.0761203,160.845384 C60.1534684,161.605284 61.6635973,159.072286 61.6635973,156.843247 C61.6635973,154.867509 61.6132597,149.700192 61.562922,142.810437 C38.7599754,147.775114 33.9275629,131.766565 33.9275629,131.766565 C30.2025783,122.242492 24.8164518,119.658834 24.8164518,119.658834 C17.3664825,114.542178 25.3701657,114.643498 25.3701657,114.643498 C33.5751995,115.251417 37.9545734,123.154372 37.9545734,123.154372 C45.2535298,135.768702 57.1332106,132.121185 61.8146102,129.993467 C62.5696746,124.67417 64.6838551,121.026653 66.9993861,118.949595 C48.8275015,116.923196 29.699202,109.830801 29.699202,78.2189838 C29.699202,69.2015103 32.8704727,61.8558156 38.1559239,56.0805797 C37.3001842,53.9528612 34.4812769,45.5939672 38.9109883,34.2461354 C38.9109883,34.2461354 45.8072437,32.017097 61.4622468,42.7063493 C68.0061387,40.8825906 75.0030694,39.9707113 82,39.9200513 C88.946593,39.9707113 95.9938613,40.8825906 102.537753,42.7063493 C118.192756,32.017097 125.089012,34.2461354 125.089012,34.2461354 C129.569061,45.5939672 126.750153,54.0035212 125.894414,56.0805797 C131.129527,61.8558156 134.300798,69.2015103 134.300798,78.2189838 C134.300798,109.932121 115.122161,116.872536 96.849601,118.949595 C99.7691835,121.482593 102.437078,126.548589 102.437078,134.248904 C102.437078,145.292776 102.336403,154.158269 102.336403,156.893907 C102.336403,159.122946 103.796194,161.655944 107.974217,160.845384 C140.542664,149.902832 164,119.000255 164,82.5757407 C164,36.9311135 127.303867,0 82,0 Z" id="Path"></path>
                </g>
                <g id="fireworks" transform="translate(772.329156, 252.313531) rotate(-75.000000) translate(-772.329156, -252.313531) translate(728.000000, 214.000000)">
                    <path d="M11.6726348,27.9280717 L56.6726348,27.9280717 C62.1954823,27.9280717 66.6726348,32.4052242 66.6726348,37.9280717 L66.6726348,50.9280717 L66.6726348,50.9280717 L24.6726348,50.9280717 C17.492933,50.9280717 11.6726348,45.1077734 11.6726348,37.9280717 L11.6726348,27.9280717 L11.6726348,27.9280717 Z" id="Rectangle" fill="#EF7C85" transform="translate(39.172635, 39.428072) rotate(-29.000000) translate(-39.172635, -39.428072) "></path>
                    <path d="M14,0 C21.7319865,-1.42034288e-15 28,6.2680135 28,14 L28,58 L28,58 L25,58 C11.1928813,58 1.69088438e-15,46.8071187 0,33 L0,14 C-9.46895252e-16,6.2680135 6.2680135,1.42034288e-15 14,0 Z" id="Rectangle" fill="#FFA586"></path>
                    <path d="M69.3820699,16.4885478 C77.0980057,16.4885478 83.3530076,22.7435497 83.3530076,30.4594856 C83.3530076,30.4691629 83.3529975,30.4788403 83.3529774,30.4885176 L83.2623785,74.0868735 L83.2623785,74.0868735 C68.0847499,74.3055391 55.6035874,62.1789036 55.3849218,47.001275 C55.3830205,46.8693072 55.3820699,46.7373274 55.3820699,46.6053459 L55.3820699,30.4885478 C55.3820699,22.7565614 61.6500834,16.4885478 69.3820699,16.4885478 Z" id="Rectangle" fill="#FFA586" transform="translate(69.382070, 45.488548) rotate(169.000000) translate(-69.382070, -45.488548) "></path>
                </g>
                <g id="fireworks" transform="translate(256.705949, 89.017263) rotate(29.000000) translate(-256.705949, -89.017263) translate(220.062915, 57.210809)">
                    <path d="M8.98654831,22.9388251 L44.9233219,22.9388251 C50.4461694,22.9388251 54.9233219,27.4159776 54.9233219,32.9388251 L54.9233219,42.1487486 L54.9233219,42.1487486 L21.9865483,42.1487486 C14.8068466,42.1487486 8.98654831,36.3284504 8.98654831,29.1487486 L8.98654831,22.9388251 L8.98654831,22.9388251 Z" id="Rectangle" fill="#8389EF" transform="translate(31.954935, 32.543787) rotate(-29.000000) translate(-31.954935, -32.543787) "></path>
                    <path d="M11.5,-3.82595658e-12 C17.8512746,-3.82712329e-12 23,5.14872538 23,11.5 L23,48 L23,48 C10.2974508,48 8.68519987e-14,37.7025492 8.5296385e-14,25 L8.5296385e-14,11.5 C8.45185782e-14,5.14872538 5.14872538,-3.82478987e-12 11.5,-3.82595658e-12 Z" id="Rectangle" fill="#8BB6EE"></path>
                    <path d="M57.1862801,13.3843739 C63.6307383,13.3843739 68.8550038,18.6086395 68.8550038,25.0530976 C68.8550038,25.0611803 68.8549954,25.069263 68.8549786,25.0773456 L68.7793091,61.4913056 L68.7793091,61.4913056 C56.1027403,61.6739382 45.6782978,51.5456017 45.4956652,38.8690328 C45.4940773,38.7588114 45.4932832,38.64858 45.4932832,38.5383472 L45.4932832,25.0773708 C45.4932832,18.619507 50.7284163,13.3843739 57.1862801,13.3843739 Z" id="Rectangle" fill="#8BB6EE" transform="translate(57.186280, 37.605582) rotate(169.000000) translate(-57.186280, -37.605582) "></path>
                </g>
                <g id="fireworks" transform="translate(286.376600, 232.445927) rotate(-40.000000) translate(-286.376600, -232.445927) translate(255.137318, 205.632396)">
                    <path d="M8.22584425,19.3083056 L36.9849969,19.3083056 C42.5078444,19.3083056 46.9849969,23.7854581 46.9849969,29.3083056 L46.9849969,35.5166786 L46.9849969,35.5166786 L21.2258442,35.5166786 C14.0461425,35.5166786 8.22584425,29.6963803 8.22584425,22.5166786 L8.22584425,19.3083056 L8.22584425,19.3083056 Z" id="Rectangle" fill="#9561E0" transform="translate(27.605421, 27.412492) rotate(-29.000000) translate(-27.605421, -27.412492) "></path>
                    <path d="M10,0 C15.5228475,-1.01453063e-15 20,4.4771525 20,10 L20,41 L20,41 C8.954305,41 1.3527075e-15,32.045695 0,21 L0,10 C-6.76353751e-16,4.4771525 4.4771525,1.01453063e-15 10,0 Z" id="Rectangle" fill="#A184E2"></path>
                    <path d="M48.894368,11.2467374 C54.3318795,11.2467374 58.7398536,15.6547115 58.7398536,21.0922231 C58.7398536,21.0990428 58.7398465,21.1058625 58.7398323,21.1126823 L58.6759862,51.836961 L58.6759862,51.836961 C47.9801312,51.9910573 39.1845079,43.4452733 39.0304116,32.7494183 C39.0290718,32.6564191 39.0284018,32.5634113 39.0284018,32.4704024 L39.0284018,21.1127036 C39.0284018,15.6638809 43.4455453,11.2467374 48.894368,11.2467374 Z" id="Rectangle" fill="#A081E0" transform="translate(48.894368, 31.683382) rotate(169.000000) translate(-48.894368, -31.683382) "></path>
                </g>
                <g id="Group" transform="translate(409.000000, 51.000000)" fill="#F9C4B1">
                    <path d="M13.3528168,2.72272016 L17,13 L17,13 L8,13 L11.4628882,2.7374445 C11.639464,2.21414777 12.2068227,1.93307486 12.7301194,2.10965057 C13.0207152,2.20770616 13.2502453,2.43368738 13.3528168,2.72272016 Z" id="Rectangle"></path>
                    <path d="M13.6458975,15.4223167 L17.4762098,26.0406814 L17.4762098,26.0406814 L8.12244465,26.0406814 L11.75932,15.4372041 C11.938501,14.9147937 12.5072532,14.6365513 13.0296636,14.8157323 C13.3163942,14.9140777 13.5430393,15.1371738 13.6458975,15.4223167 Z" id="Rectangle" transform="translate(12.799327, 19.394684) rotate(-179.000000) translate(-12.799327, -19.394684) "></path>
                    <path d="M7.35281678,9.72272016 L11,20 L11,20 L2,20 L5.46288824,9.7374445 C5.63946396,9.21414777 6.20682267,8.93307486 6.73011939,9.10965057 C7.02071524,9.20770616 7.25024533,9.43368738 7.35281678,9.72272016 Z" id="Rectangle" transform="translate(6.500000, 13.500000) rotate(-90.000000) translate(-6.500000, -13.500000) "></path>
                    <path d="M19.401432,9.35395108 L23.2317444,19.9723158 L23.2317444,19.9723158 L13.8779792,19.9723158 L17.5148545,9.36883856 C17.6940355,8.84642817 18.2627877,8.56818575 18.7851981,8.74736674 C19.0719287,8.84571216 19.2985738,9.06880823 19.401432,9.35395108 Z" id="Rectangle" transform="translate(18.554862, 13.326319) rotate(86.000000) translate(-18.554862, -13.326319) "></path>
                    <rect id="Rectangle" x="10" y="10" width="6" height="6"></rect>
                </g>
                <g id="Group" transform="translate(619.000000, 254.000000)" fill="#F9C4B1">
                    <path d="M13.3528168,2.72272016 L17,13 L17,13 L8,13 L11.4628882,2.7374445 C11.639464,2.21414777 12.2068227,1.93307486 12.7301194,2.10965057 C13.0207152,2.20770616 13.2502453,2.43368738 13.3528168,2.72272016 Z" id="Rectangle"></path>
                    <path d="M13.6458975,15.4223167 L17.4762098,26.0406814 L17.4762098,26.0406814 L8.12244465,26.0406814 L11.75932,15.4372041 C11.938501,14.9147937 12.5072532,14.6365513 13.0296636,14.8157323 C13.3163942,14.9140777 13.5430393,15.1371738 13.6458975,15.4223167 Z" id="Rectangle" transform="translate(12.799327, 19.394684) rotate(-179.000000) translate(-12.799327, -19.394684) "></path>
                    <path d="M7.35281678,9.72272016 L11,20 L11,20 L2,20 L5.46288824,9.7374445 C5.63946396,9.21414777 6.20682267,8.93307486 6.73011939,9.10965057 C7.02071524,9.20770616 7.25024533,9.43368738 7.35281678,9.72272016 Z" id="Rectangle" transform="translate(6.500000, 13.500000) rotate(-90.000000) translate(-6.500000, -13.500000) "></path>
                    <path d="M19.401432,9.35395108 L23.2317444,19.9723158 L23.2317444,19.9723158 L13.8779792,19.9723158 L17.5148545,9.36883856 C17.6940355,8.84642817 18.2627877,8.56818575 18.7851981,8.74736674 C19.0719287,8.84571216 19.2985738,9.06880823 19.401432,9.35395108 Z" id="Rectangle" transform="translate(18.554862, 13.326319) rotate(86.000000) translate(-18.554862, -13.326319) "></path>
                    <rect id="Rectangle" x="10" y="10" width="6" height="6"></rect>
                </g>
                <rect id="Rectangle" fill="#79EAC4" transform="translate(365.500000, 128.000000) rotate(20.000000) translate(-365.500000, -128.000000) " x="354" y="117" width="23" height="22" rx="6"></rect>
                <rect id="Rectangle" fill="#79EAC4" transform="translate(759.500000, 150.000000) rotate(58.000000) translate(-759.500000, -150.000000) " x="748" y="139" width="23" height="22" rx="6"></rect>
                <rect id="Rectangle" fill="#FFE366" x="712" y="28" width="23" height="22" rx="6"></rect>
                <rect id="Rectangle" fill="#EE8CBD" transform="translate(147.500000, 122.000000) rotate(24.000000) translate(-147.500000, -122.000000) " x="136" y="111" width="23" height="22" rx="6"></rect>
                <rect id="Rectangle" fill="#EE8CBD" transform="translate(607.095483, 100.220802) rotate(24.000000) translate(-607.095483, -100.220802) " x="598.209119" y="91.720802" width="17.7727273" height="17" rx="6"></rect>
                <rect id="Rectangle" fill="#8AB5ED" x="371" y="294" width="18" height="18" rx="8.5"></rect>
                <text id="@mistricky" font-family="PingFangSC-Light, PingFang SC" font-size="14" font-weight="300" fill="#FFFFFF" fill-opacity="0.809440559">
                    <tspan x="20" y="327">@mistricky</tspan>
                </text>
            </g>
        </g>
    </g>
</svg>