<?xml version="1.0" encoding="UTF-8"?>
<svg width="30px" height="30px" viewBox="0 0 30 30" version="1.1" xmlns="http://www.w3.org/2000/svg" xmlns:xlink="http://www.w3.org/1999/xlink">
    <title>foo</title>
    <g id="Symbols" stroke="none" stroke-width="1" fill="none" fill-rule="evenodd">
        <g id="header" transform="translate(-1155.000000, -38.000000)">
            <g id="foo" transform="translate(1155.000000, 38.000000)">
                <polygon id="Path" points="0 0 30 0 30 30 0 30"></polygon>
                <path d="M23.925,16.175 C23.975,15.8 24,15.4125 24,15 C24,14.6 23.975,14.2 23.9125,13.825 L26.45,11.85 C26.675,11.675 26.7375,11.3375 26.6,11.0875 L24.2,6.9375 C24.05,6.6625 23.7375,6.575 23.4625,6.6625 L20.475,7.8625 C19.85,7.3875 19.1875,6.9875 18.45,6.6875 L18,3.5125 C17.95,3.2125 17.7,3 17.4,3 L12.6,3 C12.3,3 12.0625,3.2125 12.0125,3.5125 L11.5625,6.6875 C10.825,6.9875 10.15,7.4 9.5375,7.8625 L6.55,6.6625 C6.275,6.5625 5.9625,6.6625 5.8125,6.9375 L3.425,11.0875 C3.275,11.35 3.325,11.675 3.575,11.85 L6.1125,13.825 C6.05,14.2 6,14.6125 6,15 C6,15.3875 6.025,15.8 6.0875,16.175 L3.55,18.15 C3.325,18.325 3.2625,18.6625 3.4,18.9125 L5.8,23.0625 C5.95,23.3375 6.2625,23.425 6.5375,23.3375 L9.525,22.1375 C10.15,22.6125 10.8125,23.0125 11.55,23.3125 L12,26.4875 C12.0625,26.7875 12.3,27 12.6,27 L17.4,27 C17.7,27 17.95,26.7875 17.9875,26.4875 L18.4375,23.3125 C19.175,23.0125 19.85,22.6125 20.4625,22.1375 L23.45,23.3375 C23.725,23.4375 24.0375,23.3375 24.1875,23.0625 L26.5875,18.9125 C26.7375,18.6375 26.675,18.325 26.4375,18.15 L23.925,16.175 Z M15,19.5 C12.525,19.5 10.5,17.475 10.5,15 C10.5,12.525 12.525,10.5 15,10.5 C17.475,10.5 19.5,12.525 19.5,15 C19.5,17.475 17.475,19.5 15,19.5 Z" id="Shape" fill="#000000" fill-rule="nonzero"></path>
            </g>
        </g>
    </g>
</svg>