<?xml version="1.0" encoding="UTF-8"?>
<svg width="335px" height="166px" viewBox="0 0 335 166" version="1.1" xmlns="http://www.w3.org/2000/svg" xmlns:xlink="http://www.w3.org/1999/xlink">
    <title>Group 2</title>
    <g id="Page-1" stroke="none" stroke-width="1" fill="none" fill-rule="evenodd">
        <g id="dark/V4_home_mobile" transform="translate(-20.000000, -179.000000)">
            <g id="Group-2" transform="translate(20.000000, 179.000000)">
                <rect id="Rectangle" fill-opacity="0" fill="#2088FF" x="0" y="0" width="335" height="153" rx="15"></rect>
                <g id="icons/github_dark" transform="translate(112.000000, 31.000000)" fill="#4794FE">
                    <path d="M53.5,0 C23.941989,0 0,24.0855088 0,53.8207048 C0,77.6088616 15.3373235,97.7627167 36.5862492,104.899164 C39.2464702,105.39475 40.2317373,103.742795 40.2317373,102.289074 C40.2317373,101.000549 40.198895,97.6305603 40.1660528,93.1372418 C25.2885206,96.3750742 22.1356661,85.9347165 22.1356661,85.9347165 C19.7053407,79.7233645 16.1912216,78.03837 16.1912216,78.03837 C11.3305709,74.7014202 16.5524862,74.7674985 16.5524862,74.7674985 C21.9057704,75.1639677 24.7630448,80.3180684 24.7630448,80.3180684 C29.5251688,88.5448059 37.2759362,86.1659903 40.330264,84.7783478 C40.8228975,81.3092416 42.2022713,78.9304259 43.7130141,77.5758225 C31.8569675,76.2542583 19.3769184,71.6287833 19.3769184,51.0123807 C19.3769184,45.1314197 21.4459791,40.3407493 24.8944138,36.5742911 C24.3360958,35.1866486 22.4969306,29.735196 25.3870473,22.3344361 C25.3870473,22.3344361 29.8864334,20.8807154 40.1003683,27.8519669 C44.3698588,26.6625591 48.9349294,26.0678552 53.5,26.0348161 C58.0322284,26.0678552 62.6301412,26.6625591 66.8996317,27.8519669 C77.1135666,20.8807154 81.6129527,22.3344361 81.6129527,22.3344361 C84.5359116,29.735196 82.6967465,35.2196877 82.1384285,36.5742911 C85.5540209,40.3407493 87.6230816,45.1314197 87.6230816,51.0123807 C87.6230816,71.6948615 75.1101903,76.2212192 63.1884592,77.5758225 C65.0933088,79.2277779 66.8339472,82.5316885 66.8339472,87.5536327 C66.8339472,94.756158 66.7682627,100.538002 66.7682627,102.322113 C66.7682627,103.775834 67.7206875,105.427789 70.446593,104.899164 C91.6955187,97.7627167 107,77.6088616 107,53.8537439 C107,24.0855088 83.058011,0 53.5,0 Z" id="Path"></path>
                </g>
                <g id="fireworks" transform="translate(282.073504, 110.635913) rotate(-75.000000) translate(-282.073504, -110.635913) translate(262.479458, 93.827227)">
                    <path d="M5.16506477,12.1950122 L19.4979893,12.2437238 C24.9942227,12.2624033 29.4451863,16.7133024 29.4639454,22.2095355 L29.4645325,22.3815544 L29.4645325,22.3815544 L15.303627,22.3334274 C9.71220117,22.3144245 5.18414874,17.7864377 5.16506477,12.1950122 L5.16506477,12.1950122 L5.16506477,12.1950122 Z" id="Rectangle" fill="#EF7C85" transform="translate(17.314799, 17.288283) rotate(-29.000000) translate(-17.314799, -17.288283) "></path>
                    <path d="M6.18817658,-3.80534624e-13 C9.60581213,-3.81162433e-13 12.3763532,2.77054102 12.3763532,6.18817658 L12.3763532,25.4316377 L12.3763532,25.4316377 C5.54108205,25.4316377 -3.71771634e-13,19.8905556 -3.70832357e-13,13.0552845 L-3.70832357e-13,6.18817658 C-3.71250896e-13,2.77054102 2.77054102,-3.79906814e-13 6.18817658,-3.80534624e-13 Z" id="Rectangle" fill="#FFA586"></path>
                    <path d="M30.6883737,7.24081716 C34.1059295,7.24593961 36.8731323,10.0189108 36.8711381,13.4364698 L36.8600069,32.5129387 L36.8600069,32.5129387 C30.1324754,32.599062 24.6089169,27.2151368 24.5227936,20.4876053 C24.5222067,20.4417596 24.5218786,20.3959108 24.5218094,20.3500614 L24.5113414,13.4179187 C24.5061975,10.0115436 27.2634402,7.24596112 30.6698153,7.24081726 C30.6760014,7.24080792 30.6821876,7.24080789 30.6883737,7.24081716 Z" id="Rectangle" fill="#FFA586" transform="translate(30.688374, 19.951097) rotate(169.000000) translate(-30.688374, -19.951097) "></path>
                </g>
                <g id="fireworks" transform="translate(49.108743, 30.038628) rotate(29.000000) translate(-49.108743, -30.038628) translate(32.912060, 16.084643)">
                    <path d="M3.97685573,10.0157145 L15.8042432,10.0559108 C20.4742807,10.0717823 24.2561737,13.8536206 24.272113,18.5236578 L24.272113,18.5236578 L24.272113,18.5236578 L12.4447255,18.4834615 C7.77468801,18.4675899 3.99279494,14.6857517 3.97685573,10.0157145 L3.97685573,10.0157145 L3.97685573,10.0157145 Z" id="Rectangle" fill="#8389EF" transform="translate(14.124484, 14.269686) rotate(-29.000000) translate(-14.124484, -14.269686) "></path>
                    <path d="M5.08314504,-5.82614881e-13 C7.89048853,-5.83130582e-13 10.1662901,2.27580156 10.1662901,5.08314504 L10.1662901,21.0468726 L10.1662901,21.0468726 C4.55160311,21.0468726 2.46144259e-12,16.4952694 2.45897863e-12,10.8805825 L2.45897863e-12,5.08314504 C2.45863483e-12,2.27580156 2.27580156,-5.8209918e-13 5.08314504,-5.82614881e-13 Z" id="Rectangle" fill="#8BB6EE"></path>
                    <path d="M25.2942823,5.87790109 C28.148673,5.88217943 30.4598797,8.19820394 30.4582141,11.0525973 L30.4489172,26.9855324 L30.4489172,26.9855324 C24.8299883,27.0574638 20.2166345,22.5607338 20.1447031,16.9418049 C20.1442129,16.9035138 20.1439389,16.8652203 20.1438811,16.8269262 L20.1351381,11.0371032 C20.1308418,8.19205081 22.4337297,5.88219739 25.2787821,5.87790117 C25.2839488,5.87789337 25.2891156,5.87789334 25.2942823,5.87790109 Z" id="Rectangle" fill="#8BB6EE" transform="translate(25.294282, 16.493706) rotate(169.000000) translate(-25.294282, -16.493706) "></path>
                </g>
                <g id="fireworks" transform="translate(67.271676, 101.926993) rotate(-40.000000) translate(-67.271676, -101.926993) translate(53.463520, 90.163475)">
                    <path d="M3.63988243,8.43044532 L13.6192406,8.464361 C17.5595847,8.47775258 20.750557,11.6686786 20.7640057,15.6090225 L20.7640057,15.6090225 L20.7640057,15.6090225 L10.7846475,15.5751068 C6.84430342,15.5617153 3.65333114,12.3707892 3.63988243,8.43044532 L3.63988243,8.43044532 L3.63988243,8.43044532 Z" id="Rectangle" fill="#9561E0" transform="translate(12.201944, 12.019734) rotate(-29.000000) translate(-12.201944, -12.019734) "></path>
                    <path d="M4.42012613,-9.5923181e-13 C6.86129438,-9.59680246e-13 8.84025225,1.97895787 8.84025225,4.42012613 L8.84025225,17.977537 L8.84025225,17.977537 C3.95791575,17.977537 -3.66187562e-13,14.0196212 -3.65009119e-13,9.13728473 L-3.65009119e-13,4.42012613 C-3.65308076e-13,1.97895787 1.97895787,-9.58783375e-13 4.42012613,-9.5923181e-13 Z" id="Rectangle" fill="#A184E2"></path>
                    <path d="M21.6264611,4.93916527 C24.0348532,4.94277512 25.9849339,6.8969208 25.9835286,9.30531518 L25.9756843,22.7487292 L25.9756843,22.7487292 C21.234713,22.8094213 17.3421958,19.0153054 17.2815037,14.2743341 C17.2810901,14.242026 17.2808589,14.2097159 17.2808101,14.1774052 L17.2734332,9.29224204 C17.2698082,6.8917291 19.2128699,4.94279028 21.6133828,4.93916534 C21.6177422,4.93915876 21.6221017,4.93915874 21.6264611,4.93916527 Z" id="Rectangle" fill="#A081E0" transform="translate(21.626461, 13.896250) rotate(169.000000) translate(-21.626461, -13.896250) "></path>
                </g>
                <g id="Group" transform="translate(120.000000, 6.000000)" fill="#F9C4B1">
                    <path d="M6.30825639,2.92429194 L7.32260158,5.97333287 L7.32260158,5.97333287 L3.44593016,5.97333287 L4.40594895,2.93836806 C4.57251302,2.41179911 5.13440835,2.11995749 5.6609773,2.28652156 C5.96644569,2.38314719 6.20712096,2.62028688 6.30825639,2.92429194 Z" id="Rectangle"></path>
                    <path d="M6.42618172,8.72680111 L7.52445253,11.9653012 L7.52445253,11.9653012 L3.49531795,11.9606093 L4.52689218,8.74269472 C4.69548817,8.21677282 5.25850615,7.92710294 5.78442804,8.09569892 C6.08627975,8.19246421 6.32437844,8.42661106 6.42618172,8.72680111 Z" id="Rectangle" transform="translate(5.509885, 8.910407) rotate(-179.000000) translate(-5.509885, -8.910407) "></path>
                    <path d="M3.7065785,5.93620054 L4.8675104,9.00289469 L4.8675104,9.00289469 L0.732126105,9.00289469 L1.83044591,5.95156612 C2.01749161,5.43191975 2.59037873,5.16229364 3.1100251,5.34933934 C3.38510152,5.44835257 3.60307309,5.66278274 3.7065785,5.93620054 Z" id="Rectangle" transform="translate(2.799818, 6.203076) rotate(-90.000000) translate(-2.799818, -6.203076) "></path>
                    <path d="M8.87376361,5.75401821 L10.1370367,9.00528235 L10.1370367,9.00528235 L5.84041019,8.98657177 L7.00123932,5.77615265 C7.18903602,5.25677722 7.76231231,4.98797955 8.28168775,5.17577625 C8.55328735,5.27398173 8.76916551,5.48481587 8.87376361,5.75401821 Z" id="Rectangle" transform="translate(7.988723, 6.136852) rotate(86.000000) translate(-7.988723, -6.136852) "></path>
                    <rect id="Rectangle" x="4.3074127" y="4.59487144" width="2.58444762" height="2.75692286"></rect>
                </g>
                <g id="Group" transform="translate(225.000000, 141.000000)" fill="#F9C4B1">
                    <path d="M6.30825639,2.92429194 L7.32260158,5.97333287 L7.32260158,5.97333287 L3.44593016,5.97333287 L4.40594895,2.93836806 C4.57251302,2.41179911 5.13440835,2.11995749 5.6609773,2.28652156 C5.96644569,2.38314719 6.20712096,2.62028688 6.30825639,2.92429194 Z" id="Rectangle"></path>
                    <path d="M6.42618172,8.72680111 L7.52445253,11.9653012 L7.52445253,11.9653012 L3.49531795,11.9606093 L4.52689218,8.74269472 C4.69548817,8.21677282 5.25850615,7.92710294 5.78442804,8.09569892 C6.08627975,8.19246421 6.32437844,8.42661106 6.42618172,8.72680111 Z" id="Rectangle" transform="translate(5.509885, 8.910407) rotate(-179.000000) translate(-5.509885, -8.910407) "></path>
                    <path d="M3.7065785,5.93620054 L4.8675104,9.00289469 L4.8675104,9.00289469 L0.732126105,9.00289469 L1.83044591,5.95156612 C2.01749161,5.43191975 2.59037873,5.16229364 3.1100251,5.34933934 C3.38510152,5.44835257 3.60307309,5.66278274 3.7065785,5.93620054 Z" id="Rectangle" transform="translate(2.799818, 6.203076) rotate(-90.000000) translate(-2.799818, -6.203076) "></path>
                    <path d="M8.87376361,5.75401821 L10.1370367,9.00528235 L10.1370367,9.00528235 L5.84041019,8.98657177 L7.00123932,5.77615265 C7.18903602,5.25677722 7.76231231,4.98797955 8.28168775,5.17577625 C8.55328735,5.27398173 8.76916551,5.48481587 8.87376361,5.75401821 Z" id="Rectangle" transform="translate(7.988723, 6.136852) rotate(86.000000) translate(-7.988723, -6.136852) "></path>
                    <rect id="Rectangle" x="4.3074127" y="4.59487144" width="2.58444762" height="2.75692286"></rect>
                </g>
                <path d="M102.020517,51.3181118 L102.523492,51.314894 C105.145305,51.2981213 107.284301,53.4099236 107.301074,56.0317366 C107.301204,56.0520318 107.301203,56.0723276 107.301073,56.0926228 C107.283938,58.7581965 105.127245,60.9148225 102.461671,60.9318752 L101.958696,60.935093 C99.3368829,60.9518657 97.1978866,58.8400634 97.1811138,56.2182504 C97.180984,56.1979552 97.1809843,56.1776594 97.1811148,56.1573641 C97.1982499,53.4917904 99.3549425,51.3351645 102.020517,51.3181118 Z" id="Rectangle" fill="#79EAC4" transform="translate(102.241094, 56.124993) rotate(20.000000) translate(-102.241094, -56.124993) "></path>
                <path d="M276.233475,60.9489461 L276.641083,60.9452876 C279.258146,60.9217979 281.398736,63.0243038 281.422226,65.6413659 C281.42248,65.669692 281.42248,65.6980199 281.422226,65.726346 C281.398234,68.4046469 279.232951,70.569968 276.554651,70.5940074 L276.147043,70.5976659 C273.529981,70.6211556 271.38939,68.5186497 271.365901,65.9015876 C271.365646,65.8732615 271.365646,65.8449336 271.3659,65.8166075 C271.389892,63.1383066 273.555175,60.9729855 276.233475,60.9489461 Z" id="Rectangle" fill="#79EAC4" transform="translate(276.394063, 65.771477) rotate(58.000000) translate(-276.394063, -65.771477) "></path>
                <rect id="Rectangle" fill="#FFE366" x="255" y="12" width="10" height="10" rx="5"></rect>
                <path d="M30.8719149,77.6885786 L31.367438,77.6849128 C33.9834066,77.6655599 36.1197568,79.7705329 36.1391097,82.3865016 C36.1392829,82.4099129 36.1392825,82.4333252 36.1391086,82.4567365 C36.1192962,85.1232369 33.9625004,87.2799635 31.2959994,87.2996902 L30.8004763,87.3033561 C28.1845076,87.322709 26.0481574,85.217736 26.0288046,82.6017673 C26.0286314,82.5783559 26.0286318,82.5549436 26.0288057,82.5315323 C26.048618,79.8650319 28.2054139,77.7083053 30.8719149,77.6885786 Z" id="Rectangle" fill="#EE8CBD" transform="translate(31.083957, 82.494134) rotate(24.000000) translate(-31.083957, -82.494134) "></path>
                <path d="M216.93001,21.2310836 L217.312914,21.2282509 C219.334344,21.2132964 220.98516,22.8398665 221.000115,24.8612968 C221.000248,24.8793874 221.000248,24.8974787 221.000114,24.9155693 C220.984804,26.9760468 219.318189,28.6426083 217.257711,28.6578517 L216.874807,28.6606844 C214.853377,28.6756389 213.202561,27.0490688 213.187606,25.0276385 C213.187472,25.0095479 213.187473,24.9914566 213.187607,24.973366 C213.202917,22.9128885 214.869532,21.246327 216.93001,21.2310836 Z" id="Rectangle" fill="#EE8CBD" transform="translate(217.093860, 24.944468) rotate(24.000000) translate(-217.093860, -24.944468) "></path>
                <rect id="Rectangle" fill="#8AB5ED" x="95" y="136" width="7" height="7" rx="3.5"></rect>
                <text id="@andnasnd" font-family="PingFangSC-Light, PingFang SC" font-size="14" font-weight="300" fill="#3F3D55">
                    <tspan x="6" y="161">@andnasnd</tspan>
                </text>
            </g>
        </g>
    </g>
</svg>