<?xml version="1.0" encoding="UTF-8"?>
<svg width="27px" height="27px" viewBox="0 0 27 27" version="1.1" xmlns="http://www.w3.org/2000/svg" xmlns:xlink="http://www.w3.org/1999/xlink">
    <title>light_mode</title>
    <g id="Page-1" stroke="none" stroke-width="1" fill="none" fill-rule="evenodd">
        <g id="light/V5_home" transform="translate(-1308.000000, -163.000000)">
            <g id="switch" transform="translate(1294.000000, 133.000000)">
                <g id="light_mode" transform="translate(12.000000, 28.000000)">
                    <rect id="Rectangle" x="0" y="0" width="30" height="30"></rect>
                    <path d="M15.5,9.36363636 C12.1127273,9.36363636 9.36363636,12.1127273 9.36363636,15.5 C9.36363636,18.8872727 12.1127273,21.6363636 15.5,21.6363636 C18.8872727,21.6363636 21.6363636,18.8872727 21.6363636,15.5 C21.6363636,12.1127273 18.8872727,9.36363636 15.5,9.36363636 L15.5,9.36363636 Z M3.22727273,16.7272727 L5.68181818,16.7272727 C6.35681818,16.7272727 6.90909091,16.175 6.90909091,15.5 C6.90909091,14.825 6.35681818,14.2727273 5.68181818,14.2727273 L3.22727273,14.2727273 C2.55227273,14.2727273 2,14.825 2,15.5 C2,16.175 2.55227273,16.7272727 3.22727273,16.7272727 Z M25.3181818,16.7272727 L27.7727273,16.7272727 C28.4477273,16.7272727 29,16.175 29,15.5 C29,14.825 28.4477273,14.2727273 27.7727273,14.2727273 L25.3181818,14.2727273 C24.6431818,14.2727273 24.0909091,14.825 24.0909091,15.5 C24.0909091,16.175 24.6431818,16.7272727 25.3181818,16.7272727 Z M14.2727273,3.22727273 L14.2727273,5.68181818 C14.2727273,6.35681818 14.825,6.90909091 15.5,6.90909091 C16.175,6.90909091 16.7272727,6.35681818 16.7272727,5.68181818 L16.7272727,3.22727273 C16.7272727,2.55227273 16.175,2 15.5,2 C14.825,2 14.2727273,2.55227273 14.2727273,3.22727273 Z M14.2727273,25.3181818 L14.2727273,27.7727273 C14.2727273,28.4477273 14.825,29 15.5,29 C16.175,29 16.7272727,28.4477273 16.7272727,27.7727273 L16.7272727,25.3181818 C16.7272727,24.6431818 16.175,24.0909091 15.5,24.0909091 C14.825,24.0909091 14.2727273,24.6431818 14.2727273,25.3181818 Z M8.12409091,6.39363636 C7.64545455,5.915 6.86,5.915 6.39363636,6.39363636 C5.915,6.87227273 5.915,7.65772727 6.39363636,8.12409091 L7.69454545,9.425 C8.17318182,9.90363636 8.95863636,9.90363636 9.425,9.425 C9.89136364,8.94636364 9.90363636,8.16090909 9.425,7.69454545 L8.12409091,6.39363636 Z M23.3054545,21.575 C22.8268182,21.0963636 22.0413636,21.0963636 21.575,21.575 C21.0963636,22.0536364 21.0963636,22.8390909 21.575,23.3054545 L22.8759091,24.6063636 C23.3545455,25.085 24.14,25.085 24.6063636,24.6063636 C25.085,24.1277273 25.085,23.3422727 24.6063636,22.8759091 L23.3054545,21.575 Z M24.6063636,8.12409091 C25.085,7.64545455 25.085,6.86 24.6063636,6.39363636 C24.1277273,5.915 23.3422727,5.915 22.8759091,6.39363636 L21.575,7.69454545 C21.0963636,8.17318182 21.0963636,8.95863636 21.575,9.425 C22.0536364,9.89136364 22.8390909,9.90363636 23.3054545,9.425 L24.6063636,8.12409091 Z M9.425,23.3054545 C9.90363636,22.8268182 9.90363636,22.0413636 9.425,21.575 C8.94636364,21.0963636 8.16090909,21.0963636 7.69454545,21.575 L6.39363636,22.8759091 C5.915,23.3545455 5.915,24.14 6.39363636,24.6063636 C6.87227273,25.0727273 7.65772727,25.085 8.12409091,24.6063636 L9.425,23.3054545 Z" id="Shape" fill="#000000" fill-rule="nonzero"></path>
                </g>
            </g>
        </g>
    </g>
</svg>