<?xml version="1.0" encoding="UTF-8"?>
<svg width="25px" height="25px" viewBox="0 0 25 25" version="1.1" xmlns="http://www.w3.org/2000/svg" xmlns:xlink="http://www.w3.org/1999/xlink">
    <title>light_mode</title>
    <g id="Page-1" stroke="none" stroke-width="1" fill="none" fill-rule="evenodd">
        <g id="light/V5_home" transform="translate(-1188.000000, -143.000000)">
            <g id="switch" transform="translate(1179.000000, 121.000000)">
                <g id="light_mode" transform="translate(9.555556, 22.469136)">
                    <rect id="Rectangle" x="0" y="0" width="23.8888889" height="24.0740741"></rect>
                    <path d="M12.3425926,7.51402918 C9.64531987,7.51402918 7.45622896,9.72008979 7.45622896,12.4382716 C7.45622896,15.1564534 9.64531987,17.362514 12.3425926,17.362514 C15.0398653,17.362514 17.2289562,15.1564534 17.2289562,12.4382716 C17.2289562,9.72008979 15.0398653,7.51402918 12.3425926,7.51402918 L12.3425926,7.51402918 Z M2.56986532,13.4231201 L4.52441077,13.4231201 C5.06191077,13.4231201 5.5016835,12.9799383 5.5016835,12.4382716 C5.5016835,11.8966049 5.06191077,11.4534231 4.52441077,11.4534231 L2.56986532,11.4534231 C2.03236532,11.4534231 1.59259259,11.8966049 1.59259259,12.4382716 C1.59259259,12.9799383 2.03236532,13.4231201 2.56986532,13.4231201 Z M20.1607744,13.4231201 L22.1153199,13.4231201 C22.6528199,13.4231201 23.0925926,12.9799383 23.0925926,12.4382716 C23.0925926,11.8966049 22.6528199,11.4534231 22.1153199,11.4534231 L20.1607744,11.4534231 C19.6232744,11.4534231 19.1835017,11.8966049 19.1835017,12.4382716 C19.1835017,12.9799383 19.6232744,13.4231201 20.1607744,13.4231201 Z M11.3653199,2.58978676 L11.3653199,4.55948373 C11.3653199,5.10115039 11.8050926,5.54433221 12.3425926,5.54433221 C12.8800926,5.54433221 13.3198653,5.10115039 13.3198653,4.55948373 L13.3198653,2.58978676 C13.3198653,2.04812009 12.8800926,1.60493827 12.3425926,1.60493827 C11.8050926,1.60493827 11.3653199,2.04812009 11.3653199,2.58978676 Z M11.3653199,20.3170595 L11.3653199,22.2867565 C11.3653199,22.8284231 11.8050926,23.2716049 12.3425926,23.2716049 C12.8800926,23.2716049 13.3198653,22.8284231 13.3198653,22.2867565 L13.3198653,20.3170595 C13.3198653,19.7753928 12.8800926,19.332211 12.3425926,19.332211 C11.8050926,19.332211 11.3653199,19.7753928 11.3653199,20.3170595 Z M6.4691835,5.13069585 C6.08804714,4.74660494 5.46259259,4.74660494 5.09122896,5.13069585 C4.71009259,5.51478676 4.71009259,6.14508979 5.09122896,6.51933221 L6.12713805,7.5632716 C6.50827441,7.94736251 7.13372896,7.94736251 7.50509259,7.5632716 C7.87645623,7.1791807 7.88622896,6.54887767 7.50509259,6.17463524 L6.4691835,5.13069585 Z M18.5580471,17.3132716 C18.1769108,16.9291807 17.5514562,16.9291807 17.1800926,17.3132716 C16.7989562,17.6973625 16.7989562,18.3276655 17.1800926,18.701908 L18.2160017,19.7458474 C18.597138,20.1299383 19.2225926,20.1299383 19.5939562,19.7458474 C19.9750926,19.3617565 19.9750926,18.7314534 19.5939562,18.357211 L18.5580471,17.3132716 Z M19.5939562,6.51933221 C19.9750926,6.1352413 19.9750926,5.50493827 19.5939562,5.13069585 C19.2128199,4.74660494 18.5873653,4.74660494 18.2160017,5.13069585 L17.1800926,6.17463524 C16.7989562,6.55872615 16.7989562,7.18902918 17.1800926,7.5632716 C17.561229,7.93751403 18.1866835,7.94736251 18.5580471,7.5632716 L19.5939562,6.51933221 Z M7.50509259,18.701908 C7.88622896,18.3178171 7.88622896,17.687514 7.50509259,17.3132716 C7.12395623,16.9291807 6.49850168,16.9291807 6.12713805,17.3132716 L5.09122896,18.357211 C4.71009259,18.7413019 4.71009259,19.3716049 5.09122896,19.7458474 C5.47236532,20.1200898 6.09781987,20.1299383 6.4691835,19.7458474 L7.50509259,18.701908 Z" id="Shape" fill="#000000" fill-rule="nonzero"></path>
                </g>
            </g>
        </g>
    </g>
</svg>