<?xml version="1.0" encoding="UTF-8" standalone="no"?>
<!-- Created with Inkscape (http://www.inkscape.org/) -->

<svg
   xmlns:dc="http://purl.org/dc/elements/1.1/"
   xmlns:cc="http://creativecommons.org/ns#"
   xmlns:rdf="http://www.w3.org/1999/02/22-rdf-syntax-ns#"
   xmlns:svg="http://www.w3.org/2000/svg"
   xmlns="http://www.w3.org/2000/svg"
   xmlns:xlink="http://www.w3.org/1999/xlink"
   xmlns:sodipodi="http://sodipodi.sourceforge.net/DTD/sodipodi-0.dtd"
   xmlns:inkscape="http://www.inkscape.org/namespaces/inkscape"
   width="602"
   height="602"
   id="svg2"
   version="1.1"
   inkscape:version="0.48.2 r9819"
   sodipodi:docname="Airdrop - Copie.svg">
  <defs
     id="defs4">
    <linearGradient
       inkscape:collect="always"
       id="linearGradient3068">
      <stop
         style="stop-color:#70efff;stop-opacity:1"
         offset="0"
         id="stop3070" />
      <stop
         style="stop-color:#5770ff;stop-opacity:1"
         offset="1"
         id="stop3072" />
    </linearGradient>
    <linearGradient
       id="linearGradient3013"
       inkscape:collect="always">
      <stop
         id="stop3015"
         offset="0"
         style="stop-color:#0255fb;stop-opacity:1" />
      <stop
         id="stop3017"
         offset="1"
         style="stop-color:#13ddf5;stop-opacity:1" />
    </linearGradient>
    <linearGradient
       inkscape:collect="always"
       id="linearGradient3915">
      <stop
         style="stop-color:#0081f8;stop-opacity:1;"
         offset="0"
         id="stop3917" />
      <stop
         style="stop-color:#01ddff;stop-opacity:1"
         offset="1"
         id="stop3919" />
    </linearGradient>
    <linearGradient
       id="linearGradient3883">
      <stop
         style="stop-color:#0081f8;stop-opacity:1;"
         offset="0"
         id="stop3885" />
      <stop
         style="stop-color:#0081f8;stop-opacity:0;"
         offset="1"
         id="stop3887" />
    </linearGradient>
    <linearGradient
       id="linearGradient3843">
      <stop
         id="stop3851"
         offset="0"
         style="stop-color:#3d73c3;stop-opacity:1;" />
      <stop
         style="stop-color:#0064f5;stop-opacity:0.37254902;"
         offset="0.25"
         id="stop3857" />
      <stop
         style="stop-color:#0064f5;stop-opacity:0.24705882;"
         offset="0.5"
         id="stop3855" />
      <stop
         style="stop-color:#0064f5;stop-opacity:0;"
         offset="1"
         id="stop3847" />
    </linearGradient>
    <linearGradient
       id="linearGradient3835">
      <stop
         style="stop-color:#ffffff;stop-opacity:1;"
         offset="0"
         id="stop3837" />
      <stop
         style="stop-color:#ffffff;stop-opacity:0;"
         offset="1"
         id="stop3839" />
    </linearGradient>
    <linearGradient
       inkscape:collect="always"
       xlink:href="#linearGradient3915"
       id="linearGradient3921"
       x1="377.88785"
       y1="512.68927"
       x2="378.47192"
       y2="338.63889"
       gradientUnits="userSpaceOnUse" />
    <linearGradient
       inkscape:collect="always"
       xlink:href="#linearGradient3013"
       id="linearGradient3025"
       gradientUnits="userSpaceOnUse"
       gradientTransform="translate(1.523435e-5,450.362)"
       x1="305.20093"
       y1="598.59198"
       x2="305.785"
       y2="8.2437592" />
    <linearGradient
       inkscape:collect="always"
       xlink:href="#linearGradient3068"
       id="linearGradient3066"
       gradientUnits="userSpaceOnUse"
       gradientTransform="matrix(0.15,0,0,0.15,0.85002387,961.21217)"
       x1="305.20093"
       y1="598.59198"
       x2="305.785"
       y2="8.2437592" />
  </defs>
  <sodipodi:namedview
     id="base"
     pagecolor="#ffffff"
     bordercolor="#666666"
     borderopacity="1.0"
     inkscape:pageopacity="0.0"
     inkscape:pageshadow="2"
     inkscape:zoom="0.37410882"
     inkscape:cx="-298.61733"
     inkscape:cy="36.893627"
     inkscape:document-units="px"
     inkscape:current-layer="layer1"
     showgrid="false"
     inkscape:window-width="1366"
     inkscape:window-height="706"
     inkscape:window-x="-8"
     inkscape:window-y="-8"
     inkscape:window-maximized="1" />
  <metadata
     id="metadata7">
    <rdf:RDF>
      <cc:Work
         rdf:about="">
        <dc:format>image/svg+xml</dc:format>
        <dc:type
           rdf:resource="http://purl.org/dc/dcmitype/StillImage" />
        <dc:title />
      </cc:Work>
    </rdf:RDF>
  </metadata>
  <g
     inkscape:label="Calque 1"
     inkscape:groupmode="layer"
     id="layer1"
     transform="translate(0,-450.36218)">
    <g
       id="g3062"
       transform="matrix(6.6666666,0,0,6.6666666,-5.6668106,-5957.7191)">
      <path
         inkscape:connector-curvature="0"
         style="color:#000000;fill:url(#linearGradient3066);fill-opacity:1;fill-rule:nonzero;stroke:none;stroke-width:0.1;marker:none;visibility:visible;display:inline;overflow:visible;enable-background:accumulate"
         d="m 21.652659,961.36222 48.694734,0 c 11.441552,0 20.652633,9.21108 20.652633,20.65264 l 0,48.69474 c 0,11.4416 -9.211081,20.6526 -20.652633,20.6526 l -48.694734,0 c -11.441563,0 -20.6526336,-9.211 -20.6526336,-20.6526 l 0,-48.69474 c 0,-11.44156 9.2110706,-20.65264 20.6526336,-20.65264 z"
         id="rect2996" />
      <path
         transform="translate(0,450.36218)"
         sodipodi:nodetypes="sccccccccaaaccccsscsscccccccccccccccsscccccsscccccaaacc"
         inkscape:connector-curvature="0"
         id="rect3027"
         d="m 20.71875,536.59375 c -0.474202,0 -0.920938,0.0818 -1.34375,0.25 l 8.46875,8.71875 8.5625,8.875 0.15625,0.1875 0.25,0.25 0.25,0.25 0.5,0.53125 7.34375,7.53125 c 0.122269,0.076 0.476602,0.4042 0.753434,0.54258 0.356583,0.17824 0.743089,0.34255 1.141484,0.3568 0.42992,0.0154 0.869334,-0.10782 1.256181,-0.29601 0.289732,-0.14096 0.418572,-0.34294 0.755151,-0.60337 l 8.5,-8.78125 8.59375,-8.84375 8.28125,-8.53125 c -0.531643,-0.28806 -1.120466,-0.4375 -1.75,-0.4375 z m -2.59375,1.0625 c -0.903115,0.85572 -1.46875,2.14217 -1.46875,3.59375 l 0,28.625 c 0,1.17535 0.377499,2.24307 1,3.0625 l 1.1875,-1.125 8.84375,-8.59375 7.84375,-7.59375 -0.15625,-0.1875 -8.59375,-8.84375 -8.59375,-8.875 z m 57.1875,0.28125 -8.375,8.65625 -8.5625,8.84375 -0.15625,0.15625 8.15625,7.90625 8.84375,8.59375 0.53125,0.5 c 0.476164,-0.76402 0.75,-1.70518 0.75,-2.71875 l 0,-28.625 c 0,-1.29428 -0.448516,-2.46795 -1.1875,-3.3125 z m -38.78125,18.71875 -7.8125,7.59375 -8.875,8.59375 -1.125,1.09375 c 0.593096,0.38196 1.268042,0.625 2,0.625 l 51.71875,0 c 0.879957,0 1.678116,-0.33853 2.34375,-0.875 l -0.5625,-0.5625 -8.875,-8.59375 -8.15625,-7.875 -7.34375,7.5625 c -0.397465,0.2635 -0.663064,0.55576 -1.051168,0.73523 -0.624615,0.28885 -1.309163,0.53321 -1.997252,0.52267 -0.689922,-0.0106 -1.366428,-0.28061 -1.985577,-0.58517 -0.310792,-0.15288 -0.476438,-0.30481 -0.841003,-0.61023 z"
         style="color:#000000;fill:#ffffff;fill-opacity:1;fill-rule:nonzero;stroke:none;stroke-width:6.19999981;marker:none;visibility:visible;display:inline;overflow:visible;enable-background:accumulate" />
    </g>
  </g>
</svg>
