<svg xmlns="http://www.w3.org/2000/svg" xmlns:xlink="http://www.w3.org/1999/xlink" viewBox="0 0 66 66" fill="#fff" fill-rule="evenodd" stroke="#000" stroke-linecap="round" stroke-linejoin="round"><use xlink:href="#A" x="1" y="1"/><symbol id="A" overflow="visible"><path d="M29.994 7.538a1.9 1.9 0 0 1 2.853-1.647 1.9 1.9 0 0 1-.951 3.549 1.9 1.9 0 0 1-1.902-1.902m-22.692 17.2c0-1.05.852-1.902 1.902-1.902a1.9 1.9 0 1 1 0 3.804 1.9 1.9 0 0 1-1.902-1.902m45.384.088a1.9 1.9 0 1 1 3.804 0 1.9 1.9 0 1 1-3.804 0m-39.88 2.632a1.74 1.74 0 0 0 .882-2.292l-.844-1.908h3.32v14.96h-6.7a23.42 23.42 0 0 1-.758-8.94zm13.884.368v-4.408h7.904c.408 0 2.88.472 2.88 2.32 0 1.536-1.9 2.088-3.46 2.088zm-10.792 23.74a1.9 1.9 0 0 1 2.853-1.647 1.9 1.9 0 0 1-.951 3.549 1.9 1.9 0 0 1-1.902-1.902m28.186.088c0-1.05.852-1.902 1.902-1.902a1.9 1.9 0 1 1 0 3.804c-1.05 0-1.902-.852-1.902-1.902m.588-4.314c-.94-.2-1.86.396-2.06 1.334l-.954 4.456a23.42 23.42 0 0 1-19.53-.094l-.954-4.456a1.73 1.73 0 0 0-2.06-1.334l-3.934.844a23.43 23.43 0 0 1-2.034-2.398h19.14c.216 0 .36-.04.36-.236v-6.77c0-.2-.144-.236-.36-.236h-5.6v-4.292h6.054c.552 0 2.954.16 3.724 3.228l1.13 5c.36 1.1 1.826 3.306 3.386 3.306h9.88a23.42 23.42 0 0 1-2.17 2.51zM55.3 29.464c.135 1.351.151 2.712.05 4.066h-2.4c-.24 0-.34.16-.34.394v1.104c0 2.6-1.464 3.16-2.748 3.306-1.2.14-2.6-.512-2.744-1.26-.72-4.056-1.92-4.92-3.8-6.4 2.354-1.496 4.804-3.7 4.804-6.654 0-3.188-2.186-5.196-3.676-6.2-2.09-1.4-4.404-1.654-5.028-1.654h-24.87A23.42 23.42 0 0 1 27.65 8.772l2.93 3.074a1.73 1.73 0 0 0 2.452.056l3.28-3.134a23.42 23.42 0 0 1 16.034 11.418l-2.244 5.068a1.74 1.74 0 0 0 .882 2.292zm5.596.08l-.076-.784 2.312-2.156c.47-.44.294-1.32-.306-1.544l-2.954-1.104-.232-.76 1.84-2.56c.376-.52.03-1.35-.6-1.454l-3.116-.506-.374-.7 1.31-2.874c.268-.586-.23-1.334-.874-1.31l-3.16.11-.5-.606.726-3.08c.146-.626-.488-1.26-1.114-1.114l-3.08.726-.608-.5.11-3.16c.024-.64-.724-1.14-1.308-.874l-2.872 1.31-.7-.376-.508-3.116c-.1-.632-.934-.976-1.454-.6l-2.56 1.84-.76-.23-1.104-2.952C38.71.57 37.828.394 37.39.862l-2.156 2.312-.784-.076-1.664-2.69c-.336-.544-1.24-.544-1.574 0l-1.664 2.69-.784.076-2.16-2.316c-.44-.468-1.32-.294-1.544.308l-1.106 2.952-.76.23-2.56-1.84c-.52-.376-1.352-.03-1.454.6l-.506 3.118-.68.376-2.872-1.31c-.584-.266-1.334.234-1.308.874l.11 3.16-.608.5-3.08-.726c-.626-.146-1.26.488-1.114 1.114l.726 3.08-.5.606-3.16-.11c-.64-.02-1.14.724-.874 1.31l1.31 2.874-.376.7-3.116.506c-.632.1-.976.934-.6 1.454l1.84 2.56-.232.76-2.954 1.104c-.6.224-.776 1.106-.306 1.544l2.294 2.156-.076.784-2.69 1.664c-.544.336-.544 1.24 0 1.574l2.69 1.664.076.784-2.32 2.164c-.468.44-.294 1.32.306 1.544l2.954 1.104.232.76-1.84 2.56c-.374.52-.03 1.352.6 1.454l3.114.506.376.7-1.31 2.872c-.266.584.236 1.334.874 1.31l3.16-.11.5.608-.726 3.08c-.146.624.488 1.26 1.114 1.112l3.08-.726.608.5-.11 3.16c-.024.64.724 1.14 1.308.874l2.872-1.31.7.376.508 3.114c.1.634.934.976 1.454.604l2.56-1.844.76.232 1.104 2.954c.224.6 1.106.776 1.544.306l2.156-2.312.784.08 1.664 2.69a.97.97 0 0 0 1.574 0l1.664-2.69.784-.08 2.156 2.312c.44.47 1.32.294 1.544-.306l1.104-2.954.76-.232 2.56 1.844c.52.374 1.352.03 1.454-.604l.508-3.114.7-.376 2.872 1.31c.584.266 1.332-.232 1.308-.874l-.11-3.16.606-.5 3.08.726c.626.146 1.26-.488 1.114-1.112l-.726-3.08.5-.608 3.16.11c.64.026 1.14-.726.874-1.31l-1.31-2.872.374-.7 3.116-.506a.96.96 0 0 0 .6-1.454l-1.84-2.56.232-.76 2.954-1.104c.6-.226.776-1.106.306-1.544l-2.312-2.156.076-.784 2.69-1.664c.544-.336.546-1.236 0-1.574z" stroke="none" fill="#000" fill-rule="nonzero"/></symbol></svg>
