<?xml version="1.0" encoding="utf-8"?>
<!-- Generator: Adobe Illustrator 22.1.0, SVG Export Plug-In . SVG Version: 6.00 Build 0)  -->
<svg version="1.1" id="图层_1" xmlns="http://www.w3.org/2000/svg" xmlns:xlink="http://www.w3.org/1999/xlink" x="0px" y="0px"
	 viewBox="0 0 127.3 26.5" style="enable-background:new 0 0 127.3 26.5;" xml:space="preserve">
<style type="text/css">
	.st0{fill:#FFFFFF;}
</style>
<g>
	<g>
		<path class="st0" d="M21.7,22v4.3H0L11.5,7.2H0.4V2.9h21.1L10,22H21.7z"/>
		<path class="st0" d="M45.6,22v4.3H23.9L35.4,7.2H24.3V2.9h21.2L34,22H45.6z"/>
		<path class="st0" d="M69.1,2.9v23.4h-5.5v-9.8h-8.7l-0.3,9.8h-5.9l0.7-23.4h5.9L55,12.1h8.5V2.9H69.1z"/>
	</g>
	<g>
		<g>
			<path class="st0" d="M89.3,26.3H73.7l0.2-11h9.9v-1.8h-9.9v-4H89L89.3,26.3z M84.1,22.3L84,19.4h-4.9L79,22.3H84.1z"/>
			<path class="st0" d="M107.1,22v4.3H92.6l0.5-16.8h12.8v4.3h-7.6L98.1,22C98.1,22,107.1,22,107.1,22z"/>
			<path class="st0" d="M117,19.2l-1,1l-0.2,6.3h-5.3L111-0.1h5.3L116,12.8l3.2-3.2h7.3l-5.4,5.4l6.1,11.4h-6.6L117,19.2z"/>
		</g>
	</g>
</g>
</svg>
