<?xml version="1.0" encoding="UTF-8"?>
<svg width="357px" height="344px" viewBox="0 0 357 344" version="1.1" xmlns="http://www.w3.org/2000/svg" xmlns:xlink="http://www.w3.org/1999/xlink">
    <title>Group 5</title>
    <g id="Page-1" stroke="none" stroke-width="1" fill="none" fill-rule="evenodd">
        <g id="Artboard" transform="translate(-657.000000, -172.000000)">
            <g id="Group-5" transform="translate(656.999003, 172.000000)">
                <g id="Group-3">
                    <g id="Group-2" fill="#FFFFFF">
                        <path d="M0,264 C0,219.81722 58.3205206,197.475708 65.5155171,205.973221 C66.2868301,206.884165 67.471553,208.543099 69.0906052,210.749548 C40.964021,218.914627 21.0009968,239.499723 21.0009968,263.603774 C21.0009968,294.865175 54.5796405,320.207547 96.0009968,320.207547 C135.128804,320.207547 167.258373,297.59395 170.696513,268.738975 C183.206312,269.138465 196.95492,267.765416 212.000997,264 C308.123155,239.944564 164.54318,344 106.000997,344 C47.4588133,344 0,308.18278 0,264 Z" id="Combined-Shape"></path>
                        <polygon id="Rectangle" points="106.000997 0 185.922292 56 143.000997 310 106.000997 310"></polygon>
                        <polygon id="Rectangle" points="276.98998 56 357.000997 0 357.000997 310 320.000997 310"></polygon>
                        <path d="M106.000997,56 L357.000997,56 L357.000997,334 C357.000997,339.522847 352.523844,344 347.000997,344 L116.000997,344 C110.478149,344 106.000997,339.522847 106.000997,334 L106.000997,56 L106.000997,56 Z" id="Rectangle"></path>
                        <g id="Group" transform="translate(122.000997, 115.000000)">
                            <path d="M5,0 L93,0 C95.7614237,-5.07265313e-16 98,2.23857625 98,5 L98,45 L98,45 L0,45 L0,5 C-3.38176876e-16,2.23857625 2.23857625,5.07265313e-16 5,0 Z" id="Rectangle"></path>
                            <ellipse id="Oval" cx="49" cy="44.5" rx="49" ry="18.5"></ellipse>
                        </g>
                        <g id="Group" transform="translate(245.000997, 115.000000)">
                            <path d="M5,0 L93,0 C95.7614237,-5.07265313e-16 98,2.23857625 98,5 L98,45 L98,45 L0,45 L0,5 C-3.38176876e-16,2.23857625 2.23857625,5.07265313e-16 5,0 Z" id="Rectangle"></path>
                            <ellipse id="Oval" cx="49" cy="44.5" rx="49" ry="18.5"></ellipse>
                        </g>
                        <ellipse id="Oval" cx="231.500997" cy="56.5" rx="58.5" ry="8.5"></ellipse>
                    </g>
                    <path d="M0,264 C0,219.81722 58.3205206,197.475708 65.5155171,205.973221 C66.2868301,206.884165 67.471553,208.543099 69.0906052,210.749548 C40.964021,218.914627 21.0009968,239.499723 21.0009968,263.603774 C21.0009968,294.865175 54.5796405,320.207547 96.0009968,320.207547 C135.128804,320.207547 167.258373,297.59395 170.696513,268.738975 C183.206312,269.138465 196.95492,267.765416 212.000997,264 C308.123155,239.944564 164.54318,344 106.000997,344 C47.4588133,344 0,308.18278 0,264 Z" id="Combined-Shape" fill="#FFFFFF"></path>
                    <polygon id="Rectangle" fill="#FFFFFF" points="106.000997 0 185.922292 56 143.000997 310 106.000997 310"></polygon>
                    <polygon id="Rectangle" fill="#FFFFFF" points="276.98998 56 357.000997 0 357.000997 310 320.000997 310"></polygon>
                    <path d="M106.000997,56 L357.000997,56 L357.000997,334 C357.000997,339.522847 352.523844,344 347.000997,344 L116.000997,344 C110.478149,344 106.000997,339.522847 106.000997,334 L106.000997,56 L106.000997,56 Z" id="Rectangle" fill="#FFFFFF"></path>
                    <g id="Group" transform="translate(122.000997, 115.000000)" fill="#000000">
                        <path d="M5,0 L93,0 C95.7614237,-5.07265313e-16 98,2.23857625 98,5 L98,45 L98,45 L0,45 L0,5 C-3.38176876e-16,2.23857625 2.23857625,5.07265313e-16 5,0 Z" id="Rectangle"></path>
                        <ellipse id="Oval" cx="49" cy="44.5" rx="49" ry="18.5"></ellipse>
                    </g>
                    <g id="Group" transform="translate(245.000997, 115.000000)" fill="#000000">
                        <path d="M5,0 L93,0 C95.7614237,-5.07265313e-16 98,2.23857625 98,5 L98,45 L98,45 L0,45 L0,5 C-3.38176876e-16,2.23857625 2.23857625,5.07265313e-16 5,0 Z" id="Rectangle"></path>
                        <ellipse id="Oval" cx="49" cy="44.5" rx="49" ry="18.5"></ellipse>
                    </g>
                    <ellipse id="Oval" fill="#FFFFFF" cx="231.500997" cy="56.5" rx="58.5" ry="8.5"></ellipse>
                </g>
                <rect id="Rectangle" fill="#000000" x="202.000997" y="115" width="63" height="8"></rect>
            </g>
        </g>
    </g>
</svg>