<?xml version="1.0" encoding="utf-8"?>
<!-- Generator: Adobe Illustrator 22.1.0, SVG Export Plug-In . SVG Version: 6.00 Build 0)  -->
<svg version="1.1" id="图层_1" xmlns="http://www.w3.org/2000/svg" xmlns:xlink="http://www.w3.org/1999/xlink" x="0px" y="0px"
	 viewBox="0 0 512 512" style="enable-background:new 0 0 512 512;" xml:space="preserve">
<style type="text/css">
	.st0{fill:#231815;}
</style>
<path class="st0" d="M393.6,0H118.4C53.1,0,0,50.8,0,113.2v285.6C0,461.2,53.1,512,118.4,512h275.2c65.3,0,118.4-50.8,118.4-113.2
	V113.2C512,50.8,458.9,0,393.6,0z M202.5,409.6h-79.1v52.8l-91.6-90.8l-17.6-17.2l-7.1-7V113.2C7.1,54.8,56.9,6.8,118.4,6.8h275.2
	c47.4,0,87.8,28.3,103.9,68.2c-2.5-0.2-5.1,0.4-7.2,2.2L415,138.8H218.4l-79.5-62C132.6,71.6,123,76,123,84v55.2v98.4v112H202
	c1.3,0,2.1,0.8,2.1,2c0,1.2-0.8,2-2.1,2h-78.6v24h58.1c1.3,0,2.1,0.8,2.1,2c0,1.2-0.8,2-2.1,2h-58.1v24h79.1c1.3,0,2.1,0.8,2.1,2
	C204.5,408.8,203.7,409.6,202.5,409.6z M225.9,293.2c-13.4,0-24.3-10.4-24.3-23.2s10.9-23.2,24.3-23.2s24.3,10.4,24.3,23.2
	C249.7,282.4,238.8,293.2,225.9,293.2z M402.8,293.2c-13.4,0-24.3-10.4-24.3-23.2s10.9-23.2,24.3-23.2c13.4,0,24.3,10.4,24.3,23.2
	C427.1,282.4,416.2,293.2,402.8,293.2z M504.5,407.6h-78.6c-1.3,0-2.1-0.8-2.1-2c0-1.2,0.8-2,2.1-2h78.9
	C504.7,404.9,504.6,406.3,504.5,407.6z M504.9,380h-58.1c-1.3,0-2.1-0.8-2.1-2s0.8-2,2.1-2h58.1V380z M504.9,352h-79.1
	c-1.3,0-2.1-0.8-2.1-2s0.8-2,2.1-2h79.1V352z"/>
</svg>
