<?xml version="1.0" encoding="UTF-8"?>
<svg width="32px" height="31px" viewBox="0 0 32 31" version="1.1" xmlns="http://www.w3.org/2000/svg" xmlns:xlink="http://www.w3.org/1999/xlink">
    <title>Group 4</title>
    <g id="Page-1" stroke="none" stroke-width="1" fill="none" fill-rule="evenodd">
        <g id="Desktop" transform="translate(-161.000000, -22.000000)">
            <g id="Group-4" transform="translate(161.000000, 22.000000)">
                <path d="M0,23.7906977 C0,19.8091099 5.22759509,17.7957761 5.87252295,18.5615402 C5.94171061,18.6436912 6.04800873,18.7933468 6.19329654,18.9924013 C3.67199047,19.7276102 1.88243703,21.5827294 1.88243703,23.7549912 C1.88243703,26.5721524 4.89227905,28.8559127 8.60510734,28.8559127 C12.1128144,28.8559127 14.9930648,26.8175219 15.3006068,24.2167278 C16.42077,24.2538613 17.653605,24.130166 19.0028374,23.7906977 C27.6188051,21.6229113 14.7489274,31 9.50146338,31 C4.2539994,31 0,27.7722854 0,23.7906977 Z" id="Combined-Shape" fill="#000000"></path>
                <polygon id="Rectangle" fill="#000000" points="9.50146338 0 16.6652569 5.04651163 12.8179807 27.9360465 9.50146338 27.9360465"></polygon>
                <polygon id="Rectangle" fill="#000000" points="24.8281642 5.04651163 32 0 32 27.9360465 28.6834826 27.9360465"></polygon>
                <path d="M9.50146338,5.04651163 L32,5.04651163 L32,30.103644 C32,30.5986877 31.5986877,31 31.103644,31 L10.3978194,31 C9.90277565,31 9.50146338,30.5986877 9.50146338,30.103644 L9.50146338,5.04651163 L9.50146338,5.04651163 Z" id="Rectangle" fill="#000000"></path>
                <g id="Group" transform="translate(10.935633, 10.363372)" fill="#FFFFFF">
                    <path d="M0.44817802,0 L8.33611118,0 C8.58363306,-1.00980184e-16 8.7842892,0.200656135 8.7842892,0.44817802 L8.7842892,4.05523256 L8.7842892,4.05523256 L0,4.05523256 L0,0.44817802 C-3.03126885e-17,0.200656135 0.200656135,-1.00421184e-17 0.44817802,0 Z" id="Rectangle"></path>
                    <ellipse id="Oval" cx="4.3921446" cy="4.01017442" rx="4.3921446" ry="1.66715116"></ellipse>
                </g>
                <g id="Group" transform="translate(21.960812, 10.363372)" fill="#FFFFFF">
                    <path d="M0.44817802,0 L8.33611118,0 C8.58363306,-1.00980184e-16 8.7842892,0.200656135 8.7842892,0.44817802 L8.7842892,4.05523256 L8.7842892,4.05523256 L0,4.05523256 L0,0.44817802 C-3.03126885e-17,0.200656135 0.200656135,-6.55532697e-17 0.44817802,0 Z" id="Rectangle"></path>
                    <ellipse id="Oval" cx="4.3921446" cy="4.01017442" rx="4.3921446" ry="1.66715116"></ellipse>
                </g>
                <ellipse id="Oval" fill="#000000" cx="20.7507317" cy="5.09156977" rx="5.24368284" ry="1"></ellipse>
                <rect id="Rectangle" fill="#FFFFFF" x="18.1064814" y="10.3633721" width="5.64704306" height="1"></rect>
            </g>
        </g>
    </g>
</svg>